<svg width="85" height="45" viewBox="0 0 22.489583 11.90625" id="itop-dark.svg" xmlns="http://www.w3.org/2000/svg" xmlns:svg="http://www.w3.org/2000/svg">
  <g id="layer1">
    <g id="a" transform="matrix(0.06570456,0,0,0.06570456,57.205089,-11.902252)" style="display:inline" />
    <g id="b" transform="matrix(0.04825379,0,0,0.05197131,0.32204641,0.12832604)">
      <g id="c">
        <g id="d">
          <path class="f" d="m 434.94,147.04 c 9.69,0 17.59,-7.9 17.59,-17.59 0,-9.69 -8.16,-17.59 -17.59,-17.59 -9.94,0 -17.59,8.16 -17.59,17.59 0,9.43 7.65,17.59 17.59,17.59" id="path1" style="fill:#f18700" />
          <path class="f" d="m 20.19,34.42 c 9.43,0 17.08,-7.65 17.08,-17.34 C 37.27,7.9 29.37,0 20.19,0 9.99,0 2.85,7.9 2.85,17.08 c 0,9.69 7.14,17.34 17.34,17.34" id="path2" style="fill:#f18700" />
          <path class="e"  d="m 55.86,137.2 c -10.77,0 -20.28,-6.26 -20.28,-20.78 v -1.4 l 0.05,0.04 v -33.98 0 -25.42 H 0 v 25.49 h 9.8 v 38.54 c 0,29.54 18.28,43.31 43.31,43.31 7.1,0 14.56,-2.1 21.06,-5.82 v -30.81 c -2.99,6.65 -9.69,10.84 -18.3,10.84 m 181.86,-27.04 c 0,16.52 -12.52,28.79 -28.04,28.79 -15.52,0 -28.04,-11.52 -28.04,-28.79 0,-17.27 11.77,-29.04 28.04,-29.04 16.27,0 28.04,12.52 28.04,29.04 m 26.79,0 c 0,-31.55 -24.53,-55.83 -54.83,-55.83 -30.3,0 -55.08,22.78 -54.83,57.33 v 6.51 c 0,11.27 -8.26,19.03 -20.03,19.03 -10.77,0 -20.28,-6.26 -20.28,-20.78 V 83.38 h 24.28 V 57.59 h -26.29 c 8.01,-8.01 12.27,-18.53 14.52,-33.55 H 101.02 C 97.76,44.57 88.25,57.59 67.97,57.59 v 25.79 h 20.78 v 36.3 c 0,29.54 18.28,43.31 43.31,43.31 13.02,0 27.29,-7.01 34.55,-18.28 10.01,13.02 25.53,21.03 43.06,21.03 30.29,0 54.83,-24.53 54.83,-55.58 m 96.3,-2.81 c 0,18.53 -12.27,30.04 -28.79,30.04 -15.27,0 -29.04,-11.77 -29.04,-28.29 v -2.75 c 0,-16.27 13.27,-29.29 29.04,-29.29 15.77,0 28.79,12.02 28.79,30.29 m 26.79,0.25 c 0,-32.8 -22.78,-56.08 -50.57,-56.08 -18.28,0 -31.04,9.26 -34.8,16.52 V 54.52 h -25.79 v 170.1 c 14.46,-2.24 22.27,-6.81 25.79,-22.24 v -51.97 c 0,0 11.01,13.02 32.55,12.77 27.29,-0.25 53.07,-21.78 52.82,-55.58" id="path3" style="fill:#ffffff" />
        </g>
      </g>
    </g>
  </g>
</svg>
